#!OML:ASF F:\VICON\USERDATA\INSTALL\rory3\rory3.ASF
:FULLY-SPECIFIED
:DEGREES
719
root 5.50059 17.3914 1.79663 20.2874 1.44713 1.07452
lowerback -11.9734 -0.837512 9.94838
upperback -15.7731 -1.49931 1.97034
thorax -10.8428 -1.73166 -3.38573
lowerneck -4.12864 19.7571 11.127
upperneck 8.64192 25.8247 -0.756922
head 4.71168 13.0414 -0.12638
rclavicle -2.10712e-014 -1.27222e-014
rhumerus -6.91944 -31.8525 32.7086
rradius 112.212
rwrist -63.923
rhand -6.97494 -45.0403
rfingers 7.12502
rthumb 18.8949 -74.1426
lclavicle -2.10712e-014 -1.27222e-014
lhumerus 18.4691 21.3659 -15.9129
lradius 33.8573
lwrist 56.748
lhand -22.7604 -13.3388
lfingers 7.12502
lthumb 3.67444 16.6093
rfemur -8.84215 12.3706 -9.33967
rtibia 6.44556
rfoot -15.5576 -21.8627
rtoes 41.3864
lfemur -18.2745 2.85497 -30.7504
ltibia 16.8056
lfoot -17.3325 3.20854
ltoes 7.62373
720
root 5.5084 17.3915 1.80032 20.1338 1.33968 1.0443
lowerback -11.9296 -0.785081 10.0764
upperback -15.6109 -1.44481 1.9251
thorax -10.6731 -1.71005 -3.51058
lowerneck -4.45066 19.7995 11.0837
upperneck 8.63937 25.8476 -0.794689
head 4.76079 13.0433 -0.0964318
rclavicle 3.57812e-015 4.77083e-015
rhumerus -7.1056 -31.8953 32.8209
rradius 112.189
rwrist -63.9847
rhand -6.93202 -45.0389
rfingers 7.12502
rthumb 18.9362 -74.1372
lclavicle 3.57812e-015 4.77083e-015
lhumerus 18.4953 21.6454 -15.8572
lradius 33.7973
lwrist 56.5301
lhand -23.0499 -13.5067
lfingers 7.12502
lthumb 3.3949 16.4461
rfemur -8.75519 12.5373 -9.36037
rtibia 6.45757
rfoot -14.1528 -22.6777
rtoes 38.9736
lfemur -18.1072 2.99623 -30.7726
ltibia 16.8285
lfoot -17.4001 3.22957
ltoes 7.83563
721
root 5.50996 17.3918 1.79617 20.1091 1.38024 1.07745
lowerback -11.8545 -0.821215 10.0487
upperback -15.5734 -1.48528 1.91776
thorax -10.6738 -1.72641 -3.50343
lowerneck -4.70981 19.84 11.0407
upperneck 8.66372 25.8723 -0.788227
head 4.80303 13.0498 -0.0599067
rclavicle 9.14409e-015 1.59028e-014
rhumerus -7.18908 -31.9806 32.8609
rradius 112.106
rwrist -63.9843
rhand -6.26242 -45.1529
rfingers 7.12502
rthumb 19.5801 -74.187
lclavicle 9.14409e-015 1.59028e-014
lhumerus 18.4329 21.6771 -15.9385
lradius 33.8179
lwrist 56.5993
lhand -23.2419 -13.6322
lfingers 7.12502
lthumb 3.20945 16.3234
rfemur -8.77284 12.5031 -9.38904
rtibia 6.53898
rfoot -13.4444 -23.0437
rtoes 37.5517
lfemur -18.1187 3.01194 -30.8083
ltibia 16.8709
lfoot -17.4008 3.17458
ltoes 8.03678
722
root 5.50588 17.3928 1.78346 20.2868 1.60077 1.05827
lowerback -11.8181 -0.902517 10.0417
upperback -15.7176 -1.57538 1.95892
thorax -10.8832 -1.78005 -3.44763
lowerneck -4.53209 19.8555 11.0852
upperneck 8.53688 25.9144 -0.839278
head 4.74996 13.0705 -0.0993715
rclavicle 1.23246e-014 -2.8625e-014
rhumerus -7.14288 -31.8922 32.8142
rradius 112.025
rwrist -63.9591
rhand -6.20432 -45.1008
rfingers 7.12502
rthumb 19.6359 -74.1292
lclavicle 1.23246e-014 -2.8625e-014
lhumerus 18.3981 21.487 -16.0004
lradius 33.8558
lwrist 56.6162
lhand -23.4241 -13.6807
lfingers 7.12502
lthumb 3.03351 16.2775
rfemur -8.93359 12.2418 -9.30486
rtibia 6.64716
rfoot -13.8285 -22.8677
rtoes 38.3433
lfemur -18.3742 2.93486 -30.7423
ltibia 16.9228
lfoot -17.3546 3.01459
ltoes 7.87168
723
root 5.5057 17.3938 1.77009 20.418 1.76463 1.03438
lowerback -11.7028 -0.953625 10.0984
upperback -15.8271 -1.62202 1.98235
thorax -11.0959 -1.81925 -3.44411
lowerneck -4.48489 19.8724 11.1043
upperneck 8.54319 25.9394 -0.816748
head 4.74525 13.0852 -0.0972294
rclavicle -1.39149e-014 1.59028e-015
rhumerus -7.15008 -31.737 32.8165
rradius 111.998
rwrist -63.9504
rhand -6.36247 -44.9429
rfingers 7.12502
rthumb 19.4839 -73.9867
lclavicle -1.39149e-014 1.59028e-015
lhumerus 18.3713 21.3511 -16.028
lradius 33.8978
lwrist 56.6246
lhand -23.6643 -13.7195
lfingers 7.12502
lthumb 2.80152 16.2419
rfemur -9.09369 12.0489 -9.24588
rtibia 6.78113
rfoot -14.3919 -22.5097
rtoes 39.5331
lfemur -18.5882 2.83407 -30.6865
ltibia 16.9777
lfoot -17.3255 2.93208
ltoes 7.71448
724
root 5.50901 17.3933 1.76382 20.3666 1.68298 1.05964
lowerback -11.5743 -0.92843 10.1217
upperback -15.7823 -1.57941 1.94519
thorax -11.1115 -1.80264 -3.49523
lowerneck -4.70398 19.8734 11.114
upperneck 8.69303 25.914 -0.798477
head 4.82375 13.0717 -0.0628746
rclavicle 3.18055e-015 -1.11319e-014
rhumerus -7.30707 -31.5563 32.9206
rradius 112.039
rwrist -63.9029
rhand -6.1164 -44.9403
rfingers 7.12502
rthumb 19.7205 -73.96
lclavicle 3.18055e-015 -1.11319e-014
lhumerus 18.3605 21.3758 -16.0591
lradius 33.9311
lwrist 56.6497
lhand -23.8152 -13.6248
lfingers 7.12502
lthumb 2.65585 16.3384
rfemur -9.15797 12.1292 -9.3207
rtibia 6.87302
rfoot -14.4338 -22.4055
rtoes 39.6321
lfemur -18.585 2.80812 -30.7345
ltibia 17.03
lfoot -17.3146 3.03953
ltoes 7.84414
725
root 5.51655 17.389 1.7685 20.1904 1.58061 1.06721
lowerback -11.5561 -0.879385 10.2344
upperback -15.6599 -1.52965 1.88381
thorax -10.9759 -1.78577 -3.62899
lowerneck -4.79121 19.87 11.1601
upperneck 8.67096 25.9048 -0.898401
head 4.84869 13.0612 -0.0852654
rclavicle -9.54166e-015 -2.8625e-014
rhumerus -7.49918 -31.3479 33.0987
rradius 112.105
rwrist -63.7794
rhand -5.90601 -44.8767
rfingers 7.12502
rthumb 19.9227 -73.8755
lclavicle -9.54166e-015 -2.8625e-014
lhumerus 18.3953 21.5216 -16.0333
lradius 33.9306
lwrist 56.6202
lhand -23.7093 -13.4961
lfingers 7.12502
lthumb 2.75814 16.4658
rfemur -9.06525 12.2911 -9.37345
rtibia 6.98147
rfoot -14.5644 -22.1997
rtoes 39.7313
lfemur -18.3595 2.98773 -30.8025
ltibia 17.0457
lfoot -17.4133 3.00059
ltoes 8.02815
726
root 5.5203 17.3869 1.77137 20.191 1.70977 1.10233
lowerback -11.6947 -0.903534 10.2955
upperback -15.6451 -1.58452 1.853
thorax -10.8938 -1.81841 -3.70182
lowerneck -4.6176 19.8717 11.2326
upperneck 8.53582 25.9329 -1.01657
head 4.80546 13.0722 -0.145538
rclavicle -4.53229e-014 3.02153e-014
rhumerus -7.58251 -31.1207 33.2488
rradius 112.172
rwrist -63.7685
rhand -5.72684 -44.7704
rfingers 7.12502
rthumb 20.0949 -73.7511
lclavicle -4.53229e-014 3.02153e-014
lhumerus 18.51 21.7169 -15.8833
lradius 33.8627
lwrist 56.3952
lhand -23.5895 -13.5784
lfingers 7.12502
lthumb 2.87384 16.382
rfemur -9.04139 12.1711 -9.37066
rtibia 7.13855
rfoot -15.2343 -21.7111
rtoes 40.8622
lfemur -18.3193 3.10114 -30.8499
ltibia 17.031
lfoot -17.5168 2.74674
ltoes 7.85146
727
root 5.51507 17.3893 1.76339 20.3964 1.9407 1.21303
lowerback -11.8581 -0.99437 10.1508
upperback -15.7616 -1.71013 1.85803
thorax -10.95 -1.87085 -3.61845
lowerneck -4.34708 19.8671 11.3226
upperneck 8.48161 25.9582 -1.06297
head 4.76559 13.089 -0.194089
rclavicle 3.97569e-014 6.36111e-015
rhumerus -7.54661 -30.8387 33.3108
rradius 112.213
rwrist -63.7101
rhand -5.97967 -44.7158
rfingers 7.12502
rthumb 19.8519 -73.722
lclavicle 3.97569e-014 6.36111e-015
lhumerus 18.7102 22.0118 -15.592
lradius 33.7199
lwrist 55.9325
lhand -23.6277 -13.5829
lfingers 7.12502
lthumb 2.83693 16.378
rfemur -9.21319 11.8491 -9.41085
rtibia 7.2926
rfoot -15.1433 -21.7973
rtoes 40.7641
lfemur -18.5665 2.95363 -30.9065
ltibia 17.0346
lfoot -17.4894 2.58082
ltoes 7.55174
728
root 5.51227 17.3913 1.75456 20.466 2.0782 1.21241
lowerback -11.8467 -1.06346 10.1339
upperback -15.7931 -1.79599 1.88306
thorax -11.006 -1.91295 -3.58057
lowerneck -4.35502 19.9049 11.3311
upperneck 8.47456 26.003 -1.02954
head 4.76328 13.1123 -0.181322
rclavicle -1.94809e-014 -1.43125e-014
rhumerus -7.50963 -30.7292 33.2996
rradius 112.191
rwrist -63.596
rhand -6.07034 -44.6679
rfingers 7.12502
rthumb 19.7647 -73.683
lclavicle -1.94809e-014 -1.43125e-014
lhumerus 18.7873 22.2467 -15.4499
lradius 33.6114
lwrist 55.6096
lhand -23.5623 -13.6562
lfingers 7.12502
lthumb 2.90006 16.3038
rfemur -9.36691 11.7031 -9.36175
rtibia 7.49868
rfoot -14.368 -22.2072
rtoes 39.3279
lfemur -18.6825 2.84935 -30.8612
ltibia 17.0445
lfoot -17.3752 2.54344
ltoes 7.69719
729
root 5.51326 17.3924 1.74781 20.3934 2.12852 1.13863
lowerback -11.6908 -1.09696 10.2444
upperback -15.7401 -1.8291 1.89764
thorax -11.0449 -1.94 -3.62196
lowerneck -4.53338 19.9667 11.2682
upperneck 8.46371 26.0586 -0.956185
head 4.772 13.1377 -0.133834
rclavicle -6.75868e-015 -3.18055e-014
rhumerus -7.53577 -30.7578 33.3087
rradius 112.188
rwrist -63.5924
rhand -5.74405 -44.7253
rfingers 7.12502
rthumb 20.0784 -73.7078
lclavicle -6.75868e-015 -3.18055e-014
lhumerus 18.7765 22.3194 -15.4908
lradius 33.5542
lwrist 55.5185
lhand -23.2231 -13.7151
lfingers 7.12502
lthumb 3.22768 16.2403
rfemur -9.46192 11.7198 -9.25555
rtibia 7.77019
rfoot -14.0929 -22.2383
rtoes 38.796
lfemur -18.6306 2.87945 -30.7724
ltibia 17.0157
lfoot -17.2691 2.51758
ltoes 7.96871
730
root 5.51619 17.3919 1.74318 20.3494 2.1654 1.16383
lowerback -11.5977 -1.11886 10.2942
upperback -15.7179 -1.85155 1.87985
thorax -11.0801 -1.95858 -3.66637
lowerneck -4.63676 19.9826 11.2271
upperneck 8.51174 26.0665 -0.912295
head 4.79236 13.1413 -0.104425
rclavicle 7.83212e-014 9.54166e-015
rhumerus -7.5451 -30.7933 33.3392
rradius 112.203
rwrist -63.7681
rhand -5.86179 -45.0612
rfingers 7.12502
rthumb 19.9652 -74.0556
lclavicle 7.83212e-014 9.54166e-015
lhumerus 18.7269 22.172 -15.5989
lradius 33.5913
lwrist 55.7108
lhand -23.2682 -13.6782
lfingers 7.12502
lthumb 3.18409 16.2778
rfemur -9.48674 11.7007 -9.27242
rtibia 7.91387
rfoot -14.2117 -22.1736
rtoes 39.1324
lfemur -18.5842 3.01043 -30.8171
ltibia 16.9826
lfoot -17.3023 2.30427
ltoes 7.9788
731
root 5.52013 17.389 1.74021 20.3548 2.1484 1.25201
lowerback -11.6153 -1.11071 10.2736
upperback -15.7208 -1.8444 1.84125
thorax -11.0725 -1.9557 -3.69804
lowerneck -4.62702 19.9763 11.2069
upperneck 8.51099 26.0566 -0.876205
head 4.78279 13.1381 -0.0957776
rclavicle 1.70955e-014 -1.11319e-014
rhumerus -7.52065 -30.883 33.3385
rradius 112.128
rwrist -63.9938
rhand -6.10234 -45.4682
rfingers 7.12502
rthumb 19.734 -74.4865
lclavicle 1.70955e-014 -1.11319e-014
lhumerus 18.6715 21.9772 -15.6902
lradius 33.6465
lwrist 55.9266
lhand -23.3722 -13.7497
lfingers 7.12502
lthumb 3.08362 16.2078
rfemur -9.46395 11.6789 -9.40449
rtibia 7.86713
rfoot -14.9111 -21.8504
rtoes 40.3867
lfemur -18.5768 3.2437 -30.9649
ltibia 16.9794
lfoot -17.3919 1.96582
ltoes 8.07987
